<?xml version="1.0" encoding="utf-8"?>
<!-- Generator: Adobe Illustrator 15.0.2, SVG Export Plug-In . SVG Version: 6.00 Build 0)  -->
<!DOCTYPE svg PUBLIC "-//W3C//DTD SVG 1.1//EN" "http://www.w3.org/Graphics/SVG/1.1/DTD/svg11.dtd">
<svg version="1.1" id="Layer_1" xmlns="http://www.w3.org/2000/svg" xmlns:xlink="http://www.w3.org/1999/xlink" x="0px" y="0px"
	 width="512px" height="512px" viewBox="0 0 512 512" enable-background="new 0 0 512 512" xml:space="preserve">
<g>
	<path d="M256,0C114.616,0,0,114.616,0,256s114.616,256,256,256s256-114.616,256-256S397.384,0,256,0z M256,477.867
		c-122.333,0-221.866-99.534-221.866-221.867S133.667,34.134,256,34.134S477.867,133.667,477.867,256S378.333,477.867,256,477.867z
		 M392.533,238.934H119.467c-9.417,0-17.066,7.649-17.066,17.066s7.649,17.066,17.066,17.066h273.066
		c9.417,0,17.066-7.649,17.066-17.066S401.95,238.934,392.533,238.934z M392.533,136.533H119.467
		c-9.417,0-17.066,7.65-17.066,17.066c0,9.417,7.649,17.067,17.066,17.067h273.066c9.417,0,17.066-7.65,17.066-17.067
		C409.6,144.184,401.95,136.533,392.533,136.533z M392.533,341.333H119.467c-9.417,0-17.066,7.65-17.066,17.067
		c0,9.416,7.649,17.066,17.066,17.066h273.066c9.417,0,17.066-7.65,17.066-17.066C409.6,348.983,401.95,341.333,392.533,341.333z"/>
</g>
</svg>
